<?xml version="1.0" encoding="UTF-8"?>
<svg xmlns="http://www.w3.org/2000/svg" width="1200" height="630" viewBox="0 0 1200 630">
  <defs>
    <linearGradient id="bg" x1="0%" y1="0%" x2="100%" y2="100%">
      <stop offset="0%" stop-color="#07080b"/>
      <stop offset="100%" stop-color="#0f1620"/>
    </linearGradient>
    <linearGradient id="accent" x1="0%" y1="0%" x2="100%" y2="0%">
      <stop offset="0%" stop-color="#a8ffda"/>
      <stop offset="100%" stop-color="#7ab8ff"/>
    </linearGradient>
    <radialGradient id="glow" cx="80%" cy="20%" r="60%">
      <stop offset="0%" stop-color="#a8ffda" stop-opacity="0.15"/>
      <stop offset="100%" stop-color="#a8ffda" stop-opacity="0"/>
    </radialGradient>
    <filter id="noise">
      <feTurbulence type="fractalNoise" baseFrequency="0.9" numOctaves="2" stitchTiles="stitch"/>
      <feColorMatrix values="0 0 0 0 1  0 0 0 0 1  0 0 0 0 1  0 0 0 0.04 0"/>
    </filter>
    <style>
      .mono { font-family: "JetBrains Mono", ui-monospace, Consolas, monospace; }
      .sans { font-family: Inter, -apple-system, BlinkMacSystemFont, "Segoe UI", Roboto, sans-serif; }
    </style>
  </defs>

  <rect width="1200" height="630" fill="url(#bg)"/>
  <rect width="1200" height="630" fill="url(#glow)"/>
  <rect width="1200" height="630" filter="url(#noise)" opacity="0.5"/>

  <!-- Mark -->
  <g transform="translate(80, 80)">
    <rect width="64" height="64" rx="16" fill="url(#accent)"/>
    <path d="M20 12v14H8v12h12v14h8V38h12V26H28V12z" fill="#07080b" transform="translate(0,2)"/>
    <circle cx="44" cy="32" r="6" fill="#07080b"/>
  </g>

  <!-- Wordmark -->
  <text x="164" y="135" class="sans" font-weight="800" font-size="36" fill="#e8eef7" letter-spacing="-0.5">
    Keyless<tspan fill="#a8ffda">AI</tspan>
  </text>

  <!-- Headline -->
  <text x="80" y="270" class="sans" font-weight="800" font-size="76" fill="#e8eef7" letter-spacing="-2">
    Free LLM inference.
  </text>
  <text x="80" y="350" class="sans" font-weight="800" font-size="76" letter-spacing="-2">
    <tspan fill="url(#accent)">No API keys. Ever.</tspan>
  </text>

  <!-- Subhead -->
  <text x="80" y="410" class="sans" font-weight="400" font-size="26" fill="#a8b2c3">
    Drop-in OpenAI replacement for Aider, Cline, Continue, LangChain,
  </text>
  <text x="80" y="446" class="sans" font-weight="400" font-size="26" fill="#a8b2c3">
    and any existing OpenAI SDK. Aggregated keyless providers, auto-failover.
  </text>

  <!-- Code sample -->
  <g transform="translate(80, 486)">
    <rect width="780" height="100" rx="10" fill="#0a0d13" stroke="#1f2532"/>
    <text x="20" y="32" class="mono" font-size="17" fill="#a8ffda">export</text>
    <text x="96" y="32" class="mono" font-size="17" fill="#ff9cb0">OPENAI_API_BASE</text>
    <text x="308" y="32" class="mono" font-size="17" fill="#e8eef7">=</text>
    <text x="324" y="32" class="mono" font-size="17" fill="#a8ffda">"https://text.pollinations.ai"</text>
    <text x="20" y="62" class="mono" font-size="17" fill="#a8ffda">export</text>
    <text x="96" y="62" class="mono" font-size="17" fill="#ff9cb0">OPENAI_API_KEY</text>
    <text x="300" y="62" class="mono" font-size="17" fill="#e8eef7">=</text>
    <text x="316" y="62" class="mono" font-size="17" fill="#a8ffda">"not-needed"</text>
    <text x="20" y="90" class="mono" font-size="15" fill="#5a6273">// free forever. no signup. no backend.</text>
  </g>

  <!-- URL footer -->
  <text x="80" y="588" class="mono" font-size="18" fill="#5a6273">
    keyless.ai  ·  github.com/lordbasilaiassistant-sudo/keylessai
  </text>

  <!-- Decorative marks top-right -->
  <g transform="translate(930, 60)" opacity="0.5">
    <rect x="0" y="0" width="8" height="40" rx="2" fill="url(#accent)" opacity="0.6"/>
    <rect x="16" y="10" width="8" height="30" rx="2" fill="url(#accent)" opacity="0.4"/>
    <rect x="32" y="20" width="8" height="20" rx="2" fill="url(#accent)" opacity="0.25"/>
    <rect x="48" y="0" width="8" height="40" rx="2" fill="url(#accent)" opacity="0.6"/>
    <rect x="64" y="15" width="8" height="25" rx="2" fill="url(#accent)" opacity="0.4"/>
  </g>

  <!-- Badge -->
  <g transform="translate(930, 520)">
    <rect x="0" y="0" width="190" height="56" rx="12" fill="#0f1620" stroke="#1f2532"/>
    <text x="16" y="23" class="mono" font-size="10" fill="#5a6273" letter-spacing="1.5">STATUS</text>
    <circle cx="20" cy="40" r="5" fill="#a8ffda"/>
    <text x="32" y="44" class="mono" font-size="13" fill="#a8ffda">live · 0 keys</text>
  </g>
</svg>
